<svg width="62" height="62" viewBox="0 0 62 62" fill="none" xmlns="http://www.w3.org/2000/svg">
<path d="M58.3833 62C51.2074 62 44.1176 60.4362 37.1139 57.3087C30.1102 54.1811 23.738 49.7458 17.9972 44.0028C12.2565 38.262 7.82233 31.8898 4.69478 24.8861C1.56722 17.8824 0.0022963 10.7926 0 3.61667C0 2.58333 0.344444 1.72222 1.03333 1.03333C1.72222 0.344444 2.58333 0 3.61667 0H17.5667C18.3704 0 19.088 0.273259 19.7194 0.819777C20.3509 1.3663 20.7241 2.01156 20.8389 2.75556L23.0778 14.8111C23.1926 15.7296 23.1639 16.5046 22.9917 17.1361C22.8194 17.7676 22.5037 18.313 22.0444 18.7722L13.6917 27.2111C14.8398 29.3352 16.2027 31.3869 17.7802 33.3663C19.3578 35.3457 21.0949 37.2551 22.9917 39.0944C24.7713 40.8741 26.637 42.5251 28.5889 44.0476C30.5407 45.57 32.6074 46.9616 34.7889 48.2222L42.8833 40.1278C43.4 39.6111 44.0751 39.2242 44.9087 38.967C45.7422 38.7098 46.5597 38.6375 47.3611 38.75L59.2444 41.1611C60.0481 41.3907 60.7083 41.8075 61.225 42.4114C61.7417 43.0154 62 43.6893 62 44.4333V58.3833C62 59.4167 61.6556 60.2778 60.9667 60.9667C60.2778 61.6556 59.4167 62 58.3833 62Z" fill="#656060"/>
</svg>
