<svg width="73" height="73" viewBox="0 0 73 73" fill="none" xmlns="http://www.w3.org/2000/svg">
<path fill-rule="evenodd" clip-rule="evenodd" d="M22.052 30.4167C22.052 26.5848 23.5742 22.91 26.2837 20.2004C28.9932 17.4909 32.6681 15.9688 36.4999 15.9688C40.3317 15.9688 44.0066 17.4909 46.7161 20.2004C49.4256 22.91 50.9478 26.5848 50.9478 30.4167C50.9478 34.2485 49.4256 37.9234 46.7161 40.6329C44.0066 43.3424 40.3317 44.8646 36.4999 44.8646C32.6681 44.8646 28.9932 43.3424 26.2837 40.6329C23.5742 37.9234 22.052 34.2485 22.052 30.4167ZM36.4999 20.5312C33.8781 20.5312 31.3638 21.5727 29.5099 23.4266C27.656 25.2805 26.6145 27.7949 26.6145 30.4167C26.6145 33.0384 27.656 35.5528 29.5099 37.4067C31.3638 39.2606 33.8781 40.3021 36.4999 40.3021C39.1217 40.3021 41.6361 39.2606 43.49 37.4067C45.3438 35.5528 46.3853 33.0384 46.3853 30.4167C46.3853 27.7949 45.3438 25.2805 43.49 23.4266C41.6361 21.5727 39.1217 20.5312 36.4999 20.5312Z" fill="#656060"/>
<path fill-rule="evenodd" clip-rule="evenodd" d="M10.7188 26.94C11.2387 20.634 14.1109 14.7541 18.7653 10.4677C23.4196 6.18136 29.5156 3.80198 35.843 3.802H37.157C43.4843 3.80198 49.5803 6.18136 54.2347 10.4677C58.889 14.7541 61.7612 20.634 62.2811 26.94C62.8597 33.964 60.6897 40.9385 56.2282 46.3945L41.6495 64.2217C41.0256 64.9846 40.24 65.5994 39.3494 66.0216C38.4588 66.4437 37.4855 66.6627 36.5 66.6627C35.5144 66.6627 34.5411 66.4437 33.6506 66.0216C32.76 65.5994 31.9743 64.9846 31.3504 64.2217L16.7717 46.3945C12.3099 40.9387 10.1399 33.9641 10.7188 26.94ZM35.843 8.3645C30.6614 8.36529 25.6696 10.3143 21.8584 13.8247C18.0471 17.335 15.6951 22.1501 15.2691 27.3141C14.7873 33.1597 16.5931 38.9642 20.3061 43.5049L34.8848 61.3351C35.0808 61.575 35.3277 61.7683 35.6075 61.901C35.8874 62.0337 36.1933 62.1026 36.503 62.1026C36.8127 62.1026 37.1186 62.0337 37.3985 61.901C37.6783 61.7683 37.9252 61.575 38.1212 61.3351L52.6999 43.5049C56.4107 38.9633 58.2143 33.1589 57.7308 27.3141C57.3048 22.1496 54.9523 17.3341 51.1404 13.8236C47.3286 10.3132 42.336 8.36452 37.1539 8.3645H35.843Z" fill="#656060"/>
</svg>
