<svg width="76" height="52" viewBox="0 0 76 52" fill="none" xmlns="http://www.w3.org/2000/svg">
<path d="M4.61097 3.93939V0C2.06571 0 0 1.76485 0 3.93939H4.61097ZM71.0089 3.93939H75.6199C75.6199 1.76485 73.5542 0 71.0089 0V3.93939ZM4.61097 7.87879H71.0089V0H4.61097V7.87879ZM66.3979 3.93939V41.7576H75.6199V3.93939H66.3979ZM63.6314 44.1212H11.9885V52H63.6314V44.1212ZM9.22194 41.7576V3.93939H0V41.7576H9.22194ZM11.9885 44.1212C11.2548 44.1212 10.5511 43.8722 10.0322 43.4289C9.51341 42.9857 9.22194 42.3845 9.22194 41.7576H0C0 44.474 1.26307 47.0792 3.51136 49.0001C5.75964 50.9209 8.80896 52 11.9885 52V44.1212ZM66.3979 41.7576C66.3979 42.3845 66.1065 42.9857 65.5876 43.4289C65.0688 43.8722 64.3651 44.1212 63.6314 44.1212V52C66.8109 52 69.8602 50.9209 72.1085 49.0001C74.3568 47.0792 75.6199 44.474 75.6199 41.7576H66.3979Z" fill="#656060"/>
<path d="M4.61072 3.93945L37.8097 32.3031L71.0087 3.93945" stroke="#656060" stroke-width="2.5" stroke-linecap="round" stroke-linejoin="round"/>
</svg>
