<svg width="57" height="57" viewBox="0 0 57 57" fill="none" xmlns="http://www.w3.org/2000/svg">
<path d="M28.5 38C31.0196 38 33.4359 36.9991 35.2175 35.2175C36.9991 33.4359 38 31.0196 38 28.5C38 25.9804 36.9991 23.5641 35.2175 21.7825C33.4359 20.0009 31.0196 19 28.5 19C25.9804 19 23.5641 20.0009 21.7825 21.7825C20.0009 23.5641 19 25.9804 19 28.5C19 31.0196 20.0009 33.4359 21.7825 35.2175C23.5641 36.9991 25.9804 38 28.5 38Z" stroke="white" stroke-width="1.5" stroke-linecap="round" stroke-linejoin="round"/>
<path d="M7.125 38V19C7.125 15.8506 8.37611 12.8301 10.6031 10.6031C12.8301 8.37611 15.8506 7.125 19 7.125H38C41.1494 7.125 44.1699 8.37611 46.3969 10.6031C48.6239 12.8301 49.875 15.8506 49.875 19V38C49.875 41.1494 48.6239 44.1699 46.3969 46.3969C44.1699 48.6239 41.1494 49.875 38 49.875H19C15.8506 49.875 12.8301 48.6239 10.6031 46.3969C8.37611 44.1699 7.125 41.1494 7.125 38Z" stroke="white" stroke-width="1.5"/>
<path d="M41.5625 15.4621L41.5871 15.4351" stroke="white" stroke-width="1.5" stroke-linecap="round" stroke-linejoin="round"/>
</svg>
