<svg width="207" height="28" viewBox="0 0 207 28" fill="none" xmlns="http://www.w3.org/2000/svg">
<g clip-path="url(#clip0_0_77)">
<path d="M17.7206 1.10019L21.4045 7.82888L29.6403 8.9081C31.4354 9.14342 32.1523 11.1324 30.8529 12.2741L24.8936 17.5098L26.301 24.9073C26.6076 26.5197 24.7313 27.7486 23.1253 26.9875L15.7575 23.4971L8.38958 26.9875C6.78363 27.7486 4.90731 26.5197 5.21389 24.9073L6.62066 17.5115L0.661409 12.2758C-0.637961 11.1341 0.0788495 9.14511 1.87399 8.90979L10.1098 7.83056L13.7937 1.10188C14.598 -0.366361 16.9176 -0.366361 17.7206 1.10019Z" fill="#F09B00"/>
</g>
<g clip-path="url(#clip1_0_77)">
<path d="M61.0114 1.10019L64.6116 7.82888L72.6602 8.9081C74.4146 9.14342 75.1151 11.1324 73.8452 12.2741L68.0214 17.5098L69.3968 24.9073C69.6964 26.5197 67.8628 27.7486 66.2933 26.9875L59.0929 23.4971L51.8925 26.9875C50.323 27.7486 48.4893 26.5197 48.7889 24.9073L50.1637 17.5115L44.3399 12.2758C43.0701 11.1341 43.7706 9.14511 45.525 8.90979L53.5736 7.83056L57.1738 1.10188C57.9597 -0.366361 60.2267 -0.366361 61.0114 1.10019Z" fill="#F09B00"/>
</g>
<g clip-path="url(#clip2_0_77)">
<path d="M101.84 1.10019L105.44 7.82888L113.488 8.9081C115.243 9.14342 115.943 11.1324 114.673 12.2741L108.85 17.5098L110.225 24.9073C110.525 26.5197 108.691 27.7486 107.121 26.9875L99.921 23.4971L92.7206 26.9875C91.1511 27.7486 89.3175 26.5197 89.6171 24.9073L90.9919 17.5115L85.1681 12.2758C83.8982 11.1341 84.5987 9.14511 86.3531 8.90979L94.4017 7.83056L98.0019 1.10188C98.7879 -0.366361 101.055 -0.366361 101.84 1.10019Z" fill="#F09B00"/>
</g>
<g clip-path="url(#clip3_0_77)">
<path d="M147.368 1.10019L151.052 7.82888L159.288 8.9081C161.083 9.14342 161.799 11.1324 160.5 12.2741L154.541 17.5098L155.948 24.9073C156.255 26.5197 154.379 27.7486 152.773 26.9875L145.405 23.4971L138.037 26.9875C136.431 27.7486 134.555 26.5197 134.861 24.9073L136.268 17.5115L130.309 12.2758C129.009 11.1341 129.726 9.14511 131.521 8.90979L139.757 7.83056L143.441 1.10188C144.245 -0.366361 146.565 -0.366361 147.368 1.10019Z" fill="#F09B00"/>
</g>
<g clip-path="url(#clip4_0_77)">
<path d="M192.807 1.10019L196.407 7.82888L204.456 8.9081C206.21 9.14342 206.911 11.1324 205.641 12.2741L199.817 17.5098L201.192 24.9073C201.492 26.5197 199.658 27.7486 198.089 26.9875L190.889 23.4971L183.688 26.9875C182.119 27.7486 180.285 26.5197 180.585 24.9073L181.959 17.5115L176.136 12.2758C174.866 11.1341 175.566 9.14511 177.321 8.90979L185.369 7.83056L188.969 1.10188C189.755 -0.366361 192.022 -0.366361 192.807 1.10019Z" fill="#F09B00"/>
</g>
<defs>
<clipPath id="clip0_0_77">
<rect width="31.5164" height="27.2188" fill="white"/>
</clipPath>
<clipPath id="clip1_0_77">
<rect width="30.8002" height="27.2188" fill="white" transform="translate(43.6934)"/>
</clipPath>
<clipPath id="clip2_0_77">
<rect width="30.8002" height="27.2188" fill="white" transform="translate(84.5215)"/>
</clipPath>
<clipPath id="clip3_0_77">
<rect width="31.5164" height="27.2188" fill="white" transform="translate(129.647)"/>
</clipPath>
<clipPath id="clip4_0_77">
<rect width="30.8002" height="27.2188" fill="white" transform="translate(175.489)"/>
</clipPath>
</defs>
</svg>
